<mxfile host="app.diagrams.net" agent="Mozilla/5.0 (Windows NT 10.0; Win64; x64) AppleWebKit/537.36 (KHTML, like Gecko) Chrome/133.0.0.0 Safari/537.36 Edg/133.0.0.0" version="26.0.16">
  <diagram name="Página-1" id="fidg-BaFLdZ0aBLwMmCl">
    <mxGraphModel dx="1793" dy="980" grid="1" gridSize="10" guides="1" tooltips="1" connect="1" arrows="1" fold="1" page="1" pageScale="1" pageWidth="827" pageHeight="1169" math="0" shadow="0">
      <root>
        <mxCell id="0" />
        <mxCell id="1" parent="0" />
        <mxCell id="Zo0anMa7BTNl25L5lpLc-2" value="Farmacêutica" style="rounded=1;whiteSpace=wrap;html=1;" vertex="1" parent="1">
          <mxGeometry x="340" y="370" width="120" height="60" as="geometry" />
        </mxCell>
        <mxCell id="Zo0anMa7BTNl25L5lpLc-3" value="Médico" style="rounded=1;whiteSpace=wrap;html=1;" vertex="1" parent="1">
          <mxGeometry x="530" y="860" width="120" height="60" as="geometry" />
        </mxCell>
        <mxCell id="Zo0anMa7BTNl25L5lpLc-4" value="Farmácia" style="rounded=1;whiteSpace=wrap;html=1;" vertex="1" parent="1">
          <mxGeometry x="1010" y="470" width="120" height="60" as="geometry" />
        </mxCell>
        <mxCell id="Zo0anMa7BTNl25L5lpLc-5" value="Prescrição" style="rounded=1;whiteSpace=wrap;html=1;" vertex="1" parent="1">
          <mxGeometry x="740" y="640" width="120" height="60" as="geometry" />
        </mxCell>
        <mxCell id="Zo0anMa7BTNl25L5lpLc-6" value="Paciente" style="rounded=1;whiteSpace=wrap;html=1;" vertex="1" parent="1">
          <mxGeometry x="340" y="640" width="120" height="60" as="geometry" />
        </mxCell>
        <mxCell id="Zo0anMa7BTNl25L5lpLc-7" value="Fármaco" style="rounded=1;whiteSpace=wrap;html=1;" vertex="1" parent="1">
          <mxGeometry x="740" y="370" width="120" height="60" as="geometry" />
        </mxCell>
        <mxCell id="Zo0anMa7BTNl25L5lpLc-8" value="pertence" style="rhombus;whiteSpace=wrap;html=1;" vertex="1" parent="1">
          <mxGeometry x="570" y="365" width="70" height="70" as="geometry" />
        </mxCell>
        <mxCell id="Zo0anMa7BTNl25L5lpLc-9" value="constituída por" style="rhombus;whiteSpace=wrap;html=1;" vertex="1" parent="1">
          <mxGeometry x="760" y="490" width="80" height="80" as="geometry" />
        </mxCell>
        <mxCell id="Zo0anMa7BTNl25L5lpLc-10" value="tem" style="rhombus;whiteSpace=wrap;html=1;" vertex="1" parent="1">
          <mxGeometry x="560" y="640" width="60" height="60" as="geometry" />
        </mxCell>
        <mxCell id="Zo0anMa7BTNl25L5lpLc-11" value="prescreve" style="rhombus;whiteSpace=wrap;html=1;" vertex="1" parent="1">
          <mxGeometry x="670" y="740" width="80" height="80" as="geometry" />
        </mxCell>
        <mxCell id="Zo0anMa7BTNl25L5lpLc-12" value="processa" style="rhombus;whiteSpace=wrap;html=1;" vertex="1" parent="1">
          <mxGeometry x="910" y="560" width="80" height="80" as="geometry" />
        </mxCell>
        <mxCell id="Zo0anMa7BTNl25L5lpLc-13" value="N" style="endArrow=none;html=1;rounded=0;shape=link;" edge="1" parent="1" source="Zo0anMa7BTNl25L5lpLc-5" target="Zo0anMa7BTNl25L5lpLc-11">
          <mxGeometry x="-0.3633" y="-13" width="50" height="50" relative="1" as="geometry">
            <mxPoint x="520" y="580" as="sourcePoint" />
            <mxPoint x="570" y="530" as="targetPoint" />
            <mxPoint as="offset" />
          </mxGeometry>
        </mxCell>
        <mxCell id="Zo0anMa7BTNl25L5lpLc-14" value="N" style="endArrow=none;html=1;rounded=0;" edge="1" parent="1" source="Zo0anMa7BTNl25L5lpLc-5" target="Zo0anMa7BTNl25L5lpLc-12">
          <mxGeometry x="-0.8359" y="-11" width="50" height="50" relative="1" as="geometry">
            <mxPoint x="520" y="580" as="sourcePoint" />
            <mxPoint x="570" y="530" as="targetPoint" />
            <mxPoint y="1" as="offset" />
          </mxGeometry>
        </mxCell>
        <mxCell id="Zo0anMa7BTNl25L5lpLc-15" value="1" style="endArrow=none;html=1;rounded=0;" edge="1" parent="1" source="Zo0anMa7BTNl25L5lpLc-12" target="Zo0anMa7BTNl25L5lpLc-4">
          <mxGeometry x="0.9557" y="-12" width="50" height="50" relative="1" as="geometry">
            <mxPoint x="520" y="580" as="sourcePoint" />
            <mxPoint x="570" y="530" as="targetPoint" />
            <mxPoint as="offset" />
          </mxGeometry>
        </mxCell>
        <mxCell id="Zo0anMa7BTNl25L5lpLc-16" value="N" style="endArrow=none;html=1;rounded=0;shape=link;" edge="1" parent="1" source="Zo0anMa7BTNl25L5lpLc-10" target="Zo0anMa7BTNl25L5lpLc-5">
          <mxGeometry x="0.8333" y="10" width="50" height="50" relative="1" as="geometry">
            <mxPoint x="520" y="580" as="sourcePoint" />
            <mxPoint x="570" y="530" as="targetPoint" />
            <mxPoint as="offset" />
          </mxGeometry>
        </mxCell>
        <mxCell id="Zo0anMa7BTNl25L5lpLc-17" value="1" style="endArrow=none;html=1;rounded=0;" edge="1" parent="1" source="Zo0anMa7BTNl25L5lpLc-10" target="Zo0anMa7BTNl25L5lpLc-6">
          <mxGeometry x="0.8" y="-10" width="50" height="50" relative="1" as="geometry">
            <mxPoint x="520" y="580" as="sourcePoint" />
            <mxPoint x="570" y="530" as="targetPoint" />
            <mxPoint as="offset" />
          </mxGeometry>
        </mxCell>
        <mxCell id="Zo0anMa7BTNl25L5lpLc-18" value="N" style="endArrow=none;html=1;rounded=0;shape=link;" edge="1" parent="1" source="Zo0anMa7BTNl25L5lpLc-5" target="Zo0anMa7BTNl25L5lpLc-9">
          <mxGeometry x="-0.7143" y="-10" width="50" height="50" relative="1" as="geometry">
            <mxPoint x="520" y="580" as="sourcePoint" />
            <mxPoint x="570" y="530" as="targetPoint" />
            <mxPoint as="offset" />
          </mxGeometry>
        </mxCell>
        <mxCell id="Zo0anMa7BTNl25L5lpLc-19" value="M" style="endArrow=none;html=1;rounded=0;" edge="1" parent="1" source="Zo0anMa7BTNl25L5lpLc-9" target="Zo0anMa7BTNl25L5lpLc-7">
          <mxGeometry x="0.6667" y="-10" width="50" height="50" relative="1" as="geometry">
            <mxPoint x="520" y="580" as="sourcePoint" />
            <mxPoint x="570" y="530" as="targetPoint" />
            <mxPoint as="offset" />
          </mxGeometry>
        </mxCell>
        <mxCell id="Zo0anMa7BTNl25L5lpLc-20" value="N" style="endArrow=none;html=1;rounded=0;" edge="1" parent="1" source="Zo0anMa7BTNl25L5lpLc-8" target="Zo0anMa7BTNl25L5lpLc-7">
          <mxGeometry x="0.8" y="10" width="50" height="50" relative="1" as="geometry">
            <mxPoint x="520" y="580" as="sourcePoint" />
            <mxPoint x="570" y="530" as="targetPoint" />
            <mxPoint as="offset" />
          </mxGeometry>
        </mxCell>
        <mxCell id="Zo0anMa7BTNl25L5lpLc-21" value="1" style="endArrow=none;html=1;rounded=0;" edge="1" parent="1" source="Zo0anMa7BTNl25L5lpLc-2" target="Zo0anMa7BTNl25L5lpLc-8">
          <mxGeometry x="-0.8182" y="10" width="50" height="50" relative="1" as="geometry">
            <mxPoint x="520" y="580" as="sourcePoint" />
            <mxPoint x="570" y="530" as="targetPoint" />
            <mxPoint as="offset" />
          </mxGeometry>
        </mxCell>
        <mxCell id="Zo0anMa7BTNl25L5lpLc-23" value="1" style="endArrow=none;html=1;rounded=0;" edge="1" parent="1" source="Zo0anMa7BTNl25L5lpLc-3" target="Zo0anMa7BTNl25L5lpLc-11">
          <mxGeometry x="-0.8946" y="9" width="50" height="50" relative="1" as="geometry">
            <mxPoint x="520" y="580" as="sourcePoint" />
            <mxPoint x="570" y="530" as="targetPoint" />
            <mxPoint as="offset" />
          </mxGeometry>
        </mxCell>
        <mxCell id="Zo0anMa7BTNl25L5lpLc-25" value="nome" style="ellipse;whiteSpace=wrap;html=1;" vertex="1" parent="1">
          <mxGeometry x="310" y="290" width="50" height="30" as="geometry" />
        </mxCell>
        <mxCell id="Zo0anMa7BTNl25L5lpLc-26" value="address" style="ellipse;whiteSpace=wrap;html=1;" vertex="1" parent="1">
          <mxGeometry x="410" y="290" width="50" height="30" as="geometry" />
        </mxCell>
        <mxCell id="Zo0anMa7BTNl25L5lpLc-27" value="telefone" style="ellipse;whiteSpace=wrap;html=1;" vertex="1" parent="1">
          <mxGeometry x="230" y="410" width="60" height="30" as="geometry" />
        </mxCell>
        <mxCell id="Zo0anMa7BTNl25L5lpLc-28" value="&lt;u&gt;&lt;b&gt;nºRegNacional&lt;/b&gt;&lt;/u&gt;" style="ellipse;whiteSpace=wrap;html=1;" vertex="1" parent="1">
          <mxGeometry x="240" y="335" width="90" height="30" as="geometry" />
        </mxCell>
        <mxCell id="Zo0anMa7BTNl25L5lpLc-29" value="" style="endArrow=none;html=1;rounded=0;" edge="1" parent="1" source="Zo0anMa7BTNl25L5lpLc-2" target="Zo0anMa7BTNl25L5lpLc-26">
          <mxGeometry width="50" height="50" relative="1" as="geometry">
            <mxPoint x="510" y="350" as="sourcePoint" />
            <mxPoint x="560" y="300" as="targetPoint" />
          </mxGeometry>
        </mxCell>
        <mxCell id="Zo0anMa7BTNl25L5lpLc-30" value="" style="endArrow=none;html=1;rounded=0;" edge="1" parent="1" source="Zo0anMa7BTNl25L5lpLc-2" target="Zo0anMa7BTNl25L5lpLc-25">
          <mxGeometry width="50" height="50" relative="1" as="geometry">
            <mxPoint x="520" y="360" as="sourcePoint" />
            <mxPoint x="570" y="310" as="targetPoint" />
          </mxGeometry>
        </mxCell>
        <mxCell id="Zo0anMa7BTNl25L5lpLc-31" value="" style="endArrow=none;html=1;rounded=0;" edge="1" parent="1" source="Zo0anMa7BTNl25L5lpLc-2" target="Zo0anMa7BTNl25L5lpLc-28">
          <mxGeometry width="50" height="50" relative="1" as="geometry">
            <mxPoint x="530" y="370" as="sourcePoint" />
            <mxPoint x="580" y="320" as="targetPoint" />
          </mxGeometry>
        </mxCell>
        <mxCell id="Zo0anMa7BTNl25L5lpLc-32" value="" style="endArrow=none;html=1;rounded=0;" edge="1" parent="1" source="Zo0anMa7BTNl25L5lpLc-2" target="Zo0anMa7BTNl25L5lpLc-27">
          <mxGeometry width="50" height="50" relative="1" as="geometry">
            <mxPoint x="540" y="380" as="sourcePoint" />
            <mxPoint x="590" y="330" as="targetPoint" />
          </mxGeometry>
        </mxCell>
        <mxCell id="Zo0anMa7BTNl25L5lpLc-33" value="nome" style="ellipse;whiteSpace=wrap;html=1;" vertex="1" parent="1">
          <mxGeometry x="740" y="305" width="50" height="30" as="geometry" />
        </mxCell>
        <mxCell id="Zo0anMa7BTNl25L5lpLc-34" value="&lt;u&gt;&lt;b&gt;Fórmula&lt;/b&gt;&lt;/u&gt;" style="ellipse;whiteSpace=wrap;html=1;" vertex="1" parent="1">
          <mxGeometry x="827" y="305" width="50" height="30" as="geometry" />
        </mxCell>
        <mxCell id="Zo0anMa7BTNl25L5lpLc-35" value="" style="endArrow=none;html=1;rounded=0;" edge="1" parent="1" source="Zo0anMa7BTNl25L5lpLc-7" target="Zo0anMa7BTNl25L5lpLc-34">
          <mxGeometry width="50" height="50" relative="1" as="geometry">
            <mxPoint x="750" y="550" as="sourcePoint" />
            <mxPoint x="800" y="500" as="targetPoint" />
          </mxGeometry>
        </mxCell>
        <mxCell id="Zo0anMa7BTNl25L5lpLc-36" value="" style="endArrow=none;html=1;rounded=0;" edge="1" parent="1" source="Zo0anMa7BTNl25L5lpLc-7" target="Zo0anMa7BTNl25L5lpLc-33">
          <mxGeometry width="50" height="50" relative="1" as="geometry">
            <mxPoint x="750" y="550" as="sourcePoint" />
            <mxPoint x="800" y="500" as="targetPoint" />
          </mxGeometry>
        </mxCell>
        <mxCell id="Zo0anMa7BTNl25L5lpLc-37" value="data" style="ellipse;whiteSpace=wrap;html=1;" vertex="1" parent="1">
          <mxGeometry x="890" y="700" width="70" height="40" as="geometry" />
        </mxCell>
        <mxCell id="Zo0anMa7BTNl25L5lpLc-38" value="&lt;u&gt;&lt;b&gt;nºPrescrição&lt;/b&gt;&lt;/u&gt;" style="ellipse;whiteSpace=wrap;html=1;" vertex="1" parent="1">
          <mxGeometry x="810" y="740" width="80" height="40" as="geometry" />
        </mxCell>
        <mxCell id="Zo0anMa7BTNl25L5lpLc-39" value="" style="endArrow=none;html=1;rounded=0;" edge="1" parent="1" source="Zo0anMa7BTNl25L5lpLc-37" target="Zo0anMa7BTNl25L5lpLc-5">
          <mxGeometry width="50" height="50" relative="1" as="geometry">
            <mxPoint x="780" y="740" as="sourcePoint" />
            <mxPoint x="830" y="690" as="targetPoint" />
          </mxGeometry>
        </mxCell>
        <mxCell id="Zo0anMa7BTNl25L5lpLc-40" value="" style="endArrow=none;html=1;rounded=0;" edge="1" parent="1" source="Zo0anMa7BTNl25L5lpLc-38" target="Zo0anMa7BTNl25L5lpLc-5">
          <mxGeometry width="50" height="50" relative="1" as="geometry">
            <mxPoint x="780" y="740" as="sourcePoint" />
            <mxPoint x="830" y="690" as="targetPoint" />
          </mxGeometry>
        </mxCell>
        <mxCell id="Zo0anMa7BTNl25L5lpLc-41" value="telefone" style="ellipse;whiteSpace=wrap;html=1;" vertex="1" parent="1">
          <mxGeometry x="1010" y="380" width="70" height="40" as="geometry" />
        </mxCell>
        <mxCell id="Zo0anMa7BTNl25L5lpLc-42" value="nome" style="ellipse;whiteSpace=wrap;html=1;" vertex="1" parent="1">
          <mxGeometry x="1120" y="390" width="70" height="40" as="geometry" />
        </mxCell>
        <mxCell id="Zo0anMa7BTNl25L5lpLc-43" value="&lt;u&gt;&lt;b&gt;NIF&lt;/b&gt;&lt;/u&gt;" style="ellipse;whiteSpace=wrap;html=1;" vertex="1" parent="1">
          <mxGeometry x="1180" y="460" width="70" height="40" as="geometry" />
        </mxCell>
        <mxCell id="Zo0anMa7BTNl25L5lpLc-44" value="address" style="ellipse;whiteSpace=wrap;html=1;" vertex="1" parent="1">
          <mxGeometry x="1160" y="540" width="70" height="40" as="geometry" />
        </mxCell>
        <mxCell id="Zo0anMa7BTNl25L5lpLc-45" value="dataProcessada" style="ellipse;whiteSpace=wrap;html=1;" vertex="1" parent="1">
          <mxGeometry x="1015" y="670" width="100" height="40" as="geometry" />
        </mxCell>
        <mxCell id="Zo0anMa7BTNl25L5lpLc-46" value="" style="endArrow=none;html=1;rounded=0;" edge="1" parent="1" source="Zo0anMa7BTNl25L5lpLc-45" target="Zo0anMa7BTNl25L5lpLc-12">
          <mxGeometry width="50" height="50" relative="1" as="geometry">
            <mxPoint x="925" y="480" as="sourcePoint" />
            <mxPoint x="975" y="430" as="targetPoint" />
          </mxGeometry>
        </mxCell>
        <mxCell id="Zo0anMa7BTNl25L5lpLc-47" value="" style="endArrow=none;html=1;rounded=0;" edge="1" parent="1" source="Zo0anMa7BTNl25L5lpLc-4" target="Zo0anMa7BTNl25L5lpLc-44">
          <mxGeometry width="50" height="50" relative="1" as="geometry">
            <mxPoint x="935" y="490" as="sourcePoint" />
            <mxPoint x="985" y="440" as="targetPoint" />
          </mxGeometry>
        </mxCell>
        <mxCell id="Zo0anMa7BTNl25L5lpLc-48" value="" style="endArrow=none;html=1;rounded=0;" edge="1" parent="1" source="Zo0anMa7BTNl25L5lpLc-4" target="Zo0anMa7BTNl25L5lpLc-43">
          <mxGeometry width="50" height="50" relative="1" as="geometry">
            <mxPoint x="945" y="500" as="sourcePoint" />
            <mxPoint x="995" y="450" as="targetPoint" />
          </mxGeometry>
        </mxCell>
        <mxCell id="Zo0anMa7BTNl25L5lpLc-49" value="" style="endArrow=none;html=1;rounded=0;" edge="1" parent="1" source="Zo0anMa7BTNl25L5lpLc-4" target="Zo0anMa7BTNl25L5lpLc-42">
          <mxGeometry width="50" height="50" relative="1" as="geometry">
            <mxPoint x="955" y="510" as="sourcePoint" />
            <mxPoint x="1005" y="460" as="targetPoint" />
          </mxGeometry>
        </mxCell>
        <mxCell id="Zo0anMa7BTNl25L5lpLc-50" value="" style="endArrow=none;html=1;rounded=0;" edge="1" parent="1" source="Zo0anMa7BTNl25L5lpLc-4" target="Zo0anMa7BTNl25L5lpLc-41">
          <mxGeometry width="50" height="50" relative="1" as="geometry">
            <mxPoint x="965" y="520" as="sourcePoint" />
            <mxPoint x="1015" y="470" as="targetPoint" />
          </mxGeometry>
        </mxCell>
        <mxCell id="Zo0anMa7BTNl25L5lpLc-51" value="especialidade" style="ellipse;whiteSpace=wrap;html=1;" vertex="1" parent="1">
          <mxGeometry x="670" y="940" width="90" height="40" as="geometry" />
        </mxCell>
        <mxCell id="Zo0anMa7BTNl25L5lpLc-52" value="nome" style="ellipse;whiteSpace=wrap;html=1;" vertex="1" parent="1">
          <mxGeometry x="540" y="970" width="70" height="40" as="geometry" />
        </mxCell>
        <mxCell id="Zo0anMa7BTNl25L5lpLc-53" value="&lt;u&gt;&lt;b&gt;nºSNS&lt;/b&gt;&lt;/u&gt;" style="ellipse;whiteSpace=wrap;html=1;" vertex="1" parent="1">
          <mxGeometry x="420" y="930" width="70" height="40" as="geometry" />
        </mxCell>
        <mxCell id="Zo0anMa7BTNl25L5lpLc-55" value="" style="endArrow=none;html=1;rounded=0;" edge="1" parent="1" source="Zo0anMa7BTNl25L5lpLc-53" target="Zo0anMa7BTNl25L5lpLc-3">
          <mxGeometry width="50" height="50" relative="1" as="geometry">
            <mxPoint x="420" y="1060" as="sourcePoint" />
            <mxPoint x="470" y="1010" as="targetPoint" />
          </mxGeometry>
        </mxCell>
        <mxCell id="Zo0anMa7BTNl25L5lpLc-56" value="" style="endArrow=none;html=1;rounded=0;" edge="1" parent="1" source="Zo0anMa7BTNl25L5lpLc-52" target="Zo0anMa7BTNl25L5lpLc-3">
          <mxGeometry width="50" height="50" relative="1" as="geometry">
            <mxPoint x="430" y="1070" as="sourcePoint" />
            <mxPoint x="480" y="1020" as="targetPoint" />
          </mxGeometry>
        </mxCell>
        <mxCell id="Zo0anMa7BTNl25L5lpLc-57" value="" style="endArrow=none;html=1;rounded=0;" edge="1" parent="1" source="Zo0anMa7BTNl25L5lpLc-51" target="Zo0anMa7BTNl25L5lpLc-3">
          <mxGeometry width="50" height="50" relative="1" as="geometry">
            <mxPoint x="440" y="1080" as="sourcePoint" />
            <mxPoint x="490" y="1030" as="targetPoint" />
          </mxGeometry>
        </mxCell>
        <mxCell id="Zo0anMa7BTNl25L5lpLc-58" value="nome" style="ellipse;whiteSpace=wrap;html=1;" vertex="1" parent="1">
          <mxGeometry x="240" y="580" width="70" height="40" as="geometry" />
        </mxCell>
        <mxCell id="Zo0anMa7BTNl25L5lpLc-59" value="dataNasc" style="ellipse;whiteSpace=wrap;html=1;" vertex="1" parent="1">
          <mxGeometry x="240" y="660" width="70" height="40" as="geometry" />
        </mxCell>
        <mxCell id="Zo0anMa7BTNl25L5lpLc-60" value="address" style="ellipse;whiteSpace=wrap;html=1;" vertex="1" parent="1">
          <mxGeometry x="330" y="730" width="70" height="40" as="geometry" />
        </mxCell>
        <mxCell id="Zo0anMa7BTNl25L5lpLc-61" value="&lt;u&gt;&lt;b&gt;nºUtente&lt;/b&gt;&lt;/u&gt;" style="ellipse;whiteSpace=wrap;html=1;" vertex="1" parent="1">
          <mxGeometry x="350" y="545" width="70" height="40" as="geometry" />
        </mxCell>
        <mxCell id="Zo0anMa7BTNl25L5lpLc-62" value="" style="endArrow=none;html=1;rounded=0;" edge="1" parent="1" source="Zo0anMa7BTNl25L5lpLc-60" target="Zo0anMa7BTNl25L5lpLc-6">
          <mxGeometry width="50" height="50" relative="1" as="geometry">
            <mxPoint x="460" y="600" as="sourcePoint" />
            <mxPoint x="510" y="550" as="targetPoint" />
          </mxGeometry>
        </mxCell>
        <mxCell id="Zo0anMa7BTNl25L5lpLc-63" value="" style="endArrow=none;html=1;rounded=0;" edge="1" parent="1" source="Zo0anMa7BTNl25L5lpLc-59" target="Zo0anMa7BTNl25L5lpLc-6">
          <mxGeometry width="50" height="50" relative="1" as="geometry">
            <mxPoint x="470" y="610" as="sourcePoint" />
            <mxPoint x="520" y="560" as="targetPoint" />
          </mxGeometry>
        </mxCell>
        <mxCell id="Zo0anMa7BTNl25L5lpLc-64" value="" style="endArrow=none;html=1;rounded=0;" edge="1" parent="1" source="Zo0anMa7BTNl25L5lpLc-6" target="Zo0anMa7BTNl25L5lpLc-58">
          <mxGeometry width="50" height="50" relative="1" as="geometry">
            <mxPoint x="480" y="620" as="sourcePoint" />
            <mxPoint x="530" y="570" as="targetPoint" />
          </mxGeometry>
        </mxCell>
        <mxCell id="Zo0anMa7BTNl25L5lpLc-65" value="" style="endArrow=none;html=1;rounded=0;" edge="1" parent="1" source="Zo0anMa7BTNl25L5lpLc-6" target="Zo0anMa7BTNl25L5lpLc-61">
          <mxGeometry width="50" height="50" relative="1" as="geometry">
            <mxPoint x="490" y="630" as="sourcePoint" />
            <mxPoint x="540" y="580" as="targetPoint" />
          </mxGeometry>
        </mxCell>
      </root>
    </mxGraphModel>
  </diagram>
</mxfile>
